<svg xmlns="http://www.w3.org/2000/svg" shape-rendering="geometricPrecision" text-rendering="geometricPrecision" image-rendering="optimizeQuality" fill-rule="evenodd" clip-rule="evenodd" viewBox="0 0 512 512"><circle fill="#FBD433" transform="matrix(2.64389 -.70843 .70843 2.64389 256 256)" r="93.504"/><path fill="#40270E" fill-rule="nonzero" d="M124.229 152.001c-4.381 3.92-11.113 3.546-15.033-.836-3.921-4.38-3.546-11.112.835-15.032 10.243-9.182 21.784-15.876 34.121-20.354 12.983-4.712 26.867-6.972 41.056-7.104 5.88-.045 10.687 4.686 10.732 10.566.044 5.88-4.687 10.687-10.566 10.732-11.779.109-23.267 1.971-33.956 5.852-9.881 3.585-19.082 8.908-27.189 16.176zm127.938 167.085c-6.976 1.899-14.175-2.217-16.074-9.193-1.899-6.976 2.217-14.176 9.193-16.075 20.476-5.605 38.514-.223 49.649 9.942 4.83 4.407 8.433 9.723 10.504 15.506 2.159 6.033 2.654 12.577 1.17 19.181-1.377 6.127-4.467 12.168-9.538 17.645 4.181 2.906 7.58 6.28 10.079 9.919 3.69 5.373 5.567 11.4 5.388 17.616-.18 6.311-2.441 12.46-7.021 17.942-8.085 9.673-24.258 17.441-50.073 19.004-7.232.424-13.441-5.094-13.866-12.326-.426-7.232 5.093-13.441 12.325-13.866 17.676-1.069 27.56-4.965 31.483-9.658.637-.763.948-1.377.96-1.816.015-.532-.288-1.259-.87-2.106-2.723-3.962-9.169-7.275-18.53-8.346-5.058-.298-9.704-3.528-11.56-8.589-2.496-6.807 1-14.348 7.806-16.844 11.337-4.158 16.741-9.429 17.841-14.328.337-1.5.195-3.073-.349-4.594-.633-1.767-1.805-3.457-3.415-4.926-5.186-4.734-14.207-7.071-25.102-4.088zm67.731-82.647c-4.416 8.389-14.798 11.608-23.187 7.192-8.389-4.417-11.609-14.799-7.192-23.188 5.809-10.966 13.621-19.118 22.497-24.74 10.011-6.339 21.287-9.316 32.531-9.393 10.958-.075 21.846 2.644 31.402 7.705 9.584 5.077 17.964 12.538 23.922 21.948 5.047 8.017 2.641 18.611-5.376 23.658-8.017 5.048-18.612 2.641-23.659-5.376-2.624-4.144-6.441-7.499-10.883-9.851-4.719-2.498-10.017-3.842-15.273-3.806-4.973.034-9.96 1.351-14.381 4.15-3.972 2.516-7.57 6.357-10.401 11.701zm-178.076 0c-4.416 8.389-14.798 11.608-23.188 7.192-8.388-4.417-11.608-14.799-7.192-23.188 5.894-11.126 13.758-19.377 22.658-25.021 9.888-6.273 21.04-9.274 32.212-9.401 10.865-.124 21.673 2.542 31.227 7.603 9.692 5.133 18.176 12.689 24.254 22.272 5.085 8.017 2.708 18.641-5.309 23.725-8.017 5.085-18.641 2.708-23.726-5.309-2.815-4.439-6.738-7.939-11.215-10.308-4.65-2.464-9.831-3.763-14.961-3.705a26.723 26.723 0 00-14.066 4.158c-4.113 2.608-7.817 6.55-10.694 11.982zm260.342-99.606c4.289 4.035 4.493 10.785.459 15.075-4.035 4.289-10.786 4.493-15.075.459-7.751-7.29-16.811-12.726-26.813-16.406-10.652-3.921-22.338-5.874-34.641-5.988-5.88-.045-10.61-4.852-10.566-10.732.044-5.88 4.852-10.611 10.732-10.566 14.836.136 28.942 2.5 41.824 7.241 12.638 4.65 24.148 11.577 34.08 20.917z"/><path fill="#F1935D" d="M127.694 277.916c32.263 0 58.416 26.155 58.416 58.417 0 32.261-26.153 58.415-58.416 58.415-32.261 0-58.415-26.154-58.415-58.415 0-32.262 26.154-58.417 58.415-58.417zm256.612 0c32.261 0 58.416 26.155 58.416 58.417 0 32.261-26.155 58.415-58.416 58.415-32.262 0-58.415-26.154-58.415-58.415 0-32.262 26.153-58.417 58.415-58.417z"/></svg>